<?xml version="1.0" encoding="utf-8"?>
<!-- Generator: Adobe Illustrator 23.0.3, SVG Export Plug-In . SVG Version: 6.00 Build 0)  -->
<svg version="1.1" id="Layer_1" xmlns="http://www.w3.org/2000/svg" xmlns:xlink="http://www.w3.org/1999/xlink" x="0px" y="0px"
	 viewBox="0 0 16 16" style="enable-background:new 0 0 16 16;" xml:space="preserve">
<style type="text/css">
	.st0{fill:url(#SVGID_1_);}
	.st1{fill:url(#SVGID_2_);}
	.st2{fill:url(#SVGID_3_);}
	.st3{fill:url(#SVGID_4_);}
	.st4{fill:url(#SVGID_5_);}
	.st5{fill:url(#SVGID_6_);}
	.st6{fill:url(#SVGID_7_);}
	.st7{fill:url(#SVGID_8_);}
	.st8{fill:url(#SVGID_9_);}
	.st9{fill:#00AFF0;}
	.st10{clip-path:url(#SVGID_11_);}
	.st11{fill:#B9000A;}
	.st12{fill:#0034E7;}
	.st13{fill:#FFFFFF;}
	.st14{fill:#F4FF00;}
	.st15{clip-path:url(#SVGID_13_);}
	.st16{fill:url(#SVGID_14_);}
	.st17{fill:url(#SVGID_15_);}
	.st18{fill:url(#SVGID_16_);}
	.st19{fill:url(#SVGID_17_);}
	.st20{fill:url(#SVGID_18_);}
	.st21{fill:url(#SVGID_19_);}
	.st22{fill:url(#SVGID_20_);}
	.st23{fill:#007BC6;}
	.st24{fill:url(#SVGID_21_);}
	.st25{fill:url(#SVGID_22_);}
	.st26{fill:url(#SVGID_23_);}
</style>
<g>
	<g>
		<linearGradient id="SVGID_1_" gradientUnits="userSpaceOnUse" x1="10.2321" y1="13.6103" x2="10.1321" y2="13.7103">
			<stop  offset="0" style="stop-color:#00B6CC"/>
			<stop  offset="0.1519" style="stop-color:#00ADC4"/>
			<stop  offset="0.4046" style="stop-color:#0293AD"/>
			<stop  offset="0.7246" style="stop-color:#046A88"/>
			<stop  offset="0.9944" style="stop-color:#064264"/>
		</linearGradient>
		<path class="st0" d="M10.17,13.55v0.2h0.06C10.21,13.69,10.19,13.62,10.17,13.55z"/>
	</g>
	<g>
		<linearGradient id="SVGID_2_" gradientUnits="userSpaceOnUse" x1="11.2468" y1="5.67" x2="3.1886" y2="13.7281">
			<stop  offset="0" style="stop-color:#00B6CC"/>
			<stop  offset="0.1519" style="stop-color:#00ADC4"/>
			<stop  offset="0.4046" style="stop-color:#0293AD"/>
			<stop  offset="0.7246" style="stop-color:#046A88"/>
			<stop  offset="0.9944" style="stop-color:#064264"/>
		</linearGradient>
		<path class="st1" d="M11.92,6.72H3.58c-0.49,0-0.9,0.4-0.9,0.9v5.23c0,0.5,0.41,0.9,0.9,0.9h6.59v-0.2H8.1v-1.56h2.07v-0.2H5.58
			v-1.42h4.59v1.42h0.2v-1.42h2.18v-0.2h-2.18V8.75h2.18v-0.2h-2.18V6.91h1.55c0.39,0,0.7,0.32,0.7,0.71v2.9
			c0.07,0,0.14,0.01,0.2,0.02V7.62C12.82,7.12,12.42,6.72,11.92,6.72z M5.38,8.55H2.96v0.2h2.42v1.42H2.96v0.2h2.42v1.42H2.96v0.2
			h2.42v1.56h-1.8c-0.38,0-0.7-0.31-0.7-0.7V7.62c0-0.39,0.32-0.71,0.7-0.71h1.8V8.55z M7.9,11.99v1.56H5.58v-1.56H7.9z M7.9,10.17
			H5.58V8.75H7.9V10.17z M7.9,8.55H5.58V6.91H7.9V8.55z M10.17,10.17H8.1V8.75h2.07V10.17z M10.17,8.55H8.1V6.91h2.07V8.55z"/>
	</g>
	<g>
		<linearGradient id="SVGID_3_" gradientUnits="userSpaceOnUse" x1="10.3871" y1="11.7653" x2="10.1671" y2="11.9853">
			<stop  offset="0" style="stop-color:#00B6CC"/>
			<stop  offset="0.1519" style="stop-color:#00ADC4"/>
			<stop  offset="0.4046" style="stop-color:#0293AD"/>
			<stop  offset="0.7246" style="stop-color:#046A88"/>
			<stop  offset="0.9944" style="stop-color:#064264"/>
		</linearGradient>
		<path class="st2" d="M10.41,11.79c-0.02,0.03-0.03,0.06-0.04,0.08v0.12h-0.2v-0.2H10.41z"/>
	</g>
	<g>
		<linearGradient id="SVGID_4_" gradientUnits="userSpaceOnUse" x1="10.2721" y1="13.6503" x2="10.1621" y2="13.7603">
			<stop  offset="0" style="stop-color:#00B6CC"/>
			<stop  offset="0.1519" style="stop-color:#00ADC4"/>
			<stop  offset="0.4046" style="stop-color:#0293AD"/>
			<stop  offset="0.7246" style="stop-color:#046A88"/>
			<stop  offset="0.9944" style="stop-color:#064264"/>
		</linearGradient>
		<path class="st3" d="M10.37,13.75v0.02h-0.2v-0.22c0.02,0.07,0.04,0.14,0.06,0.2H10.37z"/>
		<linearGradient id="SVGID_5_" gradientUnits="userSpaceOnUse" x1="10.4195" y1="11.8378" x2="10.0146" y2="12.2428">
			<stop  offset="0" style="stop-color:#00B6CC"/>
			<stop  offset="0.1519" style="stop-color:#00ADC4"/>
			<stop  offset="0.4046" style="stop-color:#0293AD"/>
			<stop  offset="0.7246" style="stop-color:#046A88"/>
			<stop  offset="0.9944" style="stop-color:#064264"/>
		</linearGradient>
		<path class="st4" d="M10.37,11.79v0.2h-0.06c-0.06,0.13-0.11,0.27-0.14,0.41v-0.61H10.37z"/>
	</g>
	<g>
		<linearGradient id="SVGID_6_" gradientUnits="userSpaceOnUse" x1="8.4021" y1="10.6703" x2="7.5921" y2="11.4803">
			<stop  offset="0" style="stop-color:#00B6CC"/>
			<stop  offset="0.1519" style="stop-color:#00ADC4"/>
			<stop  offset="0.4046" style="stop-color:#0293AD"/>
			<stop  offset="0.7246" style="stop-color:#046A88"/>
			<stop  offset="0.9944" style="stop-color:#064264"/>
		</linearGradient>
		<rect x="7.9" y="10.37" class="st5" width="0.2" height="1.42"/>
		<linearGradient id="SVGID_7_" gradientUnits="userSpaceOnUse" x1="8.0521" y1="13.7003" x2="7.9421" y2="13.8103">
			<stop  offset="0" style="stop-color:#00B6CC"/>
			<stop  offset="0.1519" style="stop-color:#00ADC4"/>
			<stop  offset="0.4046" style="stop-color:#0293AD"/>
			<stop  offset="0.7246" style="stop-color:#046A88"/>
			<stop  offset="0.9944" style="stop-color:#064264"/>
		</linearGradient>
		<rect x="7.9" y="13.75" class="st6" width="0.2" height="0.02"/>
	</g>
	<g>
		<linearGradient id="SVGID_8_" gradientUnits="userSpaceOnUse" x1="5.532" y1="13.7003" x2="5.4221" y2="13.8103">
			<stop  offset="0" style="stop-color:#00B6CC"/>
			<stop  offset="0.1519" style="stop-color:#00ADC4"/>
			<stop  offset="0.4046" style="stop-color:#0293AD"/>
			<stop  offset="0.7246" style="stop-color:#046A88"/>
			<stop  offset="0.9944" style="stop-color:#064264"/>
		</linearGradient>
		<rect x="5.38" y="13.75" class="st7" width="0.2" height="0.02"/>
	</g>
</g>
<g>
	<path class="st23" d="M1.25,5.17v0.29h13.01V5.17H1.25z"/>
</g>
<g>
	<path class="st23" d="M13.3,15.3h0.96v-0.58C13.99,14.98,13.66,15.18,13.3,15.3z M13.76,10.28v0.56c0.18,0.11,0.35,0.23,0.5,0.38
		v-0.66C14.1,10.45,13.94,10.36,13.76,10.28z"/>
</g>
<g>
	<path class="st23" d="M10.37,11.87v0.12h-0.06C10.33,11.95,10.34,11.91,10.37,11.87z"/>
</g>
<g>
	<linearGradient id="SVGID_9_" gradientUnits="userSpaceOnUse" x1="14.6332" y1="10.8764" x2="10.4613" y2="15.0483">
		<stop  offset="0" style="stop-color:#00B6CC"/>
		<stop  offset="0.1519" style="stop-color:#00ADC4"/>
		<stop  offset="0.4046" style="stop-color:#0293AD"/>
		<stop  offset="0.7246" style="stop-color:#046A88"/>
		<stop  offset="0.9944" style="stop-color:#064264"/>
	</linearGradient>
	<path class="st8" d="M14.26,10.56c-0.16-0.11-0.32-0.2-0.5-0.28c-0.29-0.13-0.61-0.22-0.94-0.24c-0.07-0.01-0.13-0.02-0.2-0.02
		h-0.07c-0.33,0-0.64,0.05-0.93,0.15c-0.17,0.06-0.33,0.12-0.47,0.2c-0.3,0.16-0.56,0.37-0.78,0.61c-0.07,0.08-0.14,0.16-0.2,0.25
		c-0.13,0.17-0.24,0.36-0.33,0.56c-0.02,0.07-0.05,0.13-0.07,0.2C9.66,12.3,9.6,12.63,9.6,12.97c0,0.2,0.02,0.39,0.06,0.58
		c0.01,0.07,0.03,0.13,0.05,0.2c0.1,0.39,0.29,0.75,0.53,1.05c0.15,0.19,0.32,0.36,0.51,0.5c0.5,0.39,1.13,0.62,1.8,0.62
		c1.63,0,2.95-1.33,2.95-2.95C15.5,11.98,15.01,11.1,14.26,10.56z M14.26,14.72c-0.27,0.26-0.6,0.46-0.96,0.58
		c-0.24,0.08-0.49,0.12-0.75,0.12c-0.26,0-0.51-0.04-0.75-0.12c-0.32-0.1-0.62-0.28-0.87-0.5c-0.31-0.27-0.56-0.62-0.69-1.03
		c-0.01,0-0.01-0.01-0.01-0.02c-0.02-0.06-0.04-0.13-0.06-0.2c0,0,0,0,0-0.01c-0.05-0.18-0.07-0.37-0.07-0.57s0.02-0.39,0.07-0.57
		c0.03-0.14,0.08-0.28,0.14-0.41c0.02-0.04,0.03-0.08,0.06-0.12c0.01-0.02,0.02-0.05,0.04-0.08c0.41-0.75,1.22-1.27,2.14-1.27h0.07
		c0.07,0,0.14,0.01,0.2,0.02c0.34,0.03,0.66,0.14,0.94,0.3c0.18,0.11,0.35,0.23,0.5,0.38c0.46,0.44,0.74,1.07,0.74,1.75
		S14.72,14.28,14.26,14.72z"/>
</g>
<g>
	<linearGradient id="SVGID_11_" gradientUnits="userSpaceOnUse" x1="13.4874" y1="12.0561" x2="12.3282" y2="13.2153">
		<stop  offset="0" style="stop-color:#00B6CC"/>
		<stop  offset="0.1519" style="stop-color:#00ADC4"/>
		<stop  offset="0.4046" style="stop-color:#0293AD"/>
		<stop  offset="0.7246" style="stop-color:#046A88"/>
		<stop  offset="0.9944" style="stop-color:#064264"/>
	</linearGradient>
	<polygon style="fill:url(#SVGID_11_);" points="14.09,13.33 12.45,13.33 12.45,11.22 12.65,11.22 12.65,13.14 14.09,13.14 	"/>
</g>
<g>
	<linearGradient id="SVGID_13_" gradientUnits="userSpaceOnUse" x1="13.1771" y1="0.8653" x2="-2.950332e-03" y2="14.0453">
		<stop  offset="0" style="stop-color:#00B6CC"/>
		<stop  offset="0.1519" style="stop-color:#00ADC4"/>
		<stop  offset="0.4046" style="stop-color:#0293AD"/>
		<stop  offset="0.7246" style="stop-color:#046A88"/>
		<stop  offset="0.9944" style="stop-color:#064264"/>
	</linearGradient>
	<path style="fill:url(#SVGID_13_);" d="M12.97,2.46V1.2h-2.32v1.26H5.03V1.2H2.71v1.26H0.74v3h0.51v9.84H9.6v-0.5H1.75V5.67h12.01
		v4.61c0.18,0.08,0.34,0.17,0.5,0.28v-5.1h0.51v-3H12.97z M11.15,1.7h1.32v0.73h-0.18V2.24h-0.96v0.19h-0.18V1.7z M12.09,2.44V3.1
		h-0.56V2.44H12.09z M3.21,1.7h1.32v0.73H4.32V2.24H3.36v0.19H3.21V1.7z M4.12,2.44V3.1H3.56V2.44H4.12z M14.27,4.96H1.24v-2h2.12
		V3.3h0.96V2.96h7.01V3.3h0.96V2.96h1.98V4.96z"/>
</g>
</svg>
