<?xml version="1.0" encoding="utf-8"?>
<!-- Generator: Adobe Illustrator 23.0.3, SVG Export Plug-In . SVG Version: 6.00 Build 0)  -->
<svg version="1.1" id="Layer_1" xmlns="http://www.w3.org/2000/svg" xmlns:xlink="http://www.w3.org/1999/xlink" x="0px" y="0px"
	 viewBox="0 0 16 16" style="enable-background:new 0 0 16 16;" xml:space="preserve">
<style type="text/css">
	.st0{fill:url(#SVGID_1_);}
	.st1{fill:url(#SVGID_2_);}
	.st2{fill:url(#SVGID_3_);}
	.st3{fill:url(#SVGID_4_);}
	.st4{fill:url(#SVGID_5_);}
	.st5{fill:url(#SVGID_6_);}
	.st6{fill:url(#SVGID_7_);}
	.st7{fill:url(#SVGID_8_);}
	.st8{fill:url(#SVGID_9_);}
	.st9{fill:#00AFF0;}
	.st10{clip-path:url(#SVGID_11_);}
	.st11{fill:#B9000A;}
	.st12{fill:#0034E7;}
	.st13{fill:#FFFFFF;}
	.st14{fill:#F4FF00;}
	.st15{clip-path:url(#SVGID_13_);}
	.st16{fill:url(#SVGID_14_);}
	.st17{fill:url(#SVGID_15_);}
	.st18{fill:url(#SVGID_16_);}
	.st19{fill:url(#SVGID_17_);}
	.st20{fill:url(#SVGID_18_);}
	.st21{fill:url(#SVGID_19_);}
	.st22{fill:url(#SVGID_20_);}
	.st23{fill:#007BC6;}
	.st24{fill:url(#SVGID_21_);}
	.st25{fill:url(#SVGID_22_);}
	.st26{fill:url(#SVGID_23_);}
</style>
<g>
	<circle class="st9" cx="8" cy="8" r="7.42"/>
</g>
<g>
	<defs>
		<circle id="SVGID_10_" cx="8" cy="8" r="7.42"/>
	</defs>
	<clipPath id="SVGID_1_">
		<use xlink:href="#SVGID_10_"  style="overflow:visible;"/>
	</clipPath>
	<g style="clip-path:url(#SVGID_1_);">
		<g>
			<rect x="0.22" y="8" class="st11" width="15.41" height="7.42"/>
		</g>
		<g>
			<rect x="0.22" y="0.58" class="st12" width="15.41" height="7.42"/>
		</g>
	</g>
	<g style="clip-path:url(#SVGID_1_);">
		<path class="st13" d="M1.84,2.69L8,8l-5.87,5.15C2.13,13.15-2.18,7.99,1.84,2.69z"/>
	</g>
	<g style="clip-path:url(#SVGID_1_);">
		<polygon class="st14" points="6.8,7.48 6.49,8.52 7.34,7.86 6.26,7.84 7.21,8.52 		"/>
	</g>
	<g style="clip-path:url(#SVGID_1_);">
		<polygon class="st14" points="2.4,3.65 2.08,4.7 2.93,4.04 1.85,4.02 2.8,4.7 		"/>
	</g>
	<g style="clip-path:url(#SVGID_1_);">
		<polygon class="st14" points="2.48,11.24 2.17,12.29 3.02,11.62 1.94,11.6 2.89,12.29 		"/>
	</g>
	<g style="clip-path:url(#SVGID_1_);">
		<circle class="st14" cx="3.91" cy="8" r="1.04"/>
	</g>
</g>
</svg>
