<?xml version="1.0" encoding="utf-8"?>
<!-- Generator: Adobe Illustrator 23.0.3, SVG Export Plug-In . SVG Version: 6.00 Build 0)  -->
<svg version="1.1" id="Layer_1" xmlns="http://www.w3.org/2000/svg" xmlns:xlink="http://www.w3.org/1999/xlink" x="0px" y="0px"
	 viewBox="0 0 16 16" style="enable-background:new 0 0 16 16;" xml:space="preserve">
<style type="text/css">
	.st0{fill:url(#SVGID_1_);}
	.st1{fill:url(#SVGID_2_);}
	.st2{fill:url(#SVGID_3_);}
	.st3{fill:url(#SVGID_4_);}
	.st4{fill:url(#SVGID_5_);}
	.st5{fill:url(#SVGID_6_);}
	.st6{fill:url(#SVGID_7_);}
	.st7{fill:url(#SVGID_8_);}
	.st8{fill:url(#SVGID_9_);}
	.st9{fill:#00AFF0;}
	.st10{clip-path:url(#SVGID_11_);}
	.st11{fill:#B9000A;}
	.st12{fill:#0034E7;}
	.st13{fill:#FFFFFF;}
	.st14{fill:#F4FF00;}
	.st15{clip-path:url(#SVGID_13_);}
	.st16{fill:url(#SVGID_14_);}
	.st17{fill:url(#SVGID_15_);}
	.st18{fill:url(#SVGID_16_);}
	.st19{fill:url(#SVGID_17_);}
	.st20{fill:url(#SVGID_18_);}
	.st21{fill:url(#SVGID_19_);}
	.st22{fill:url(#SVGID_20_);}
	.st23{fill:#007BC6;}
	.st24{fill:url(#SVGID_21_);}
	.st25{fill:url(#SVGID_22_);}
	.st26{fill:url(#SVGID_23_);}
</style>
<g>
	<linearGradient id="SVGID_1_" gradientUnits="userSpaceOnUse" x1="9.6186" y1="6.1842" x2="4.0937" y2="11.7091">
		<stop  offset="0" style="stop-color:#00B6CC"/>
		<stop  offset="0.1519" style="stop-color:#00ADC4"/>
		<stop  offset="0.4046" style="stop-color:#0293AD"/>
		<stop  offset="0.7246" style="stop-color:#046A88"/>
		<stop  offset="0.9944" style="stop-color:#064264"/>
	</linearGradient>
	<path class="st0" d="M4.06,1.54c0.37,0,1.17,0.73,1.67,1.38c0.32,0.52,0.67,1.2,0.76,1.47L4.63,6.26c-0.05,0.05-0.08,0.1-0.1,0.16
		L4.25,7.28C4.2,7.45,4.26,7.64,4.41,7.74l0.24,0.38c0.71,1.11,1.18,1.85,2.45,2.7l1.55,1.04c0.07,0.04,0.14,0.07,0.22,0.07
		c0.04,0,0.08-0.01,0.12-0.02l0.86-0.28c0.06-0.02,0.12-0.05,0.16-0.1l1.9-1.9c0.01,0,0.01,0,0.02,0c0.09,0,0.15,0.01,0.18,0.02
		c1.13,0.8,2.14,1.79,2.13,2.09c-0.05,0.39-1.12,1.65-2.11,2.63c-0.46,0.14-0.95,0.21-1.45,0.21c-3.3,0-6.28-3.13-6.32-3.18
		c-0.04-0.04-4.13-3.93-2.95-7.75C2.4,2.67,3.66,1.6,4.04,1.55L4.06,1.54 M4.06,1.14c-0.02,0-0.05,0-0.07,0
		C3.21,1.25,1.07,3.45,1.07,3.45C-0.3,7.6,4.1,11.71,4.1,11.71s3.08,3.28,6.6,3.28c0.55,0,1.1-0.08,1.66-0.26
		c0,0,2.2-2.15,2.29-2.94c0.1-0.79-2.34-2.49-2.34-2.49s-0.13-0.07-0.37-0.07c-0.06,0-0.13,0-0.2,0.01l-2,2l-0.86,0.28l-1.55-1.04
		C5.97,9.57,5.59,8.81,4.69,7.44L4.63,7.41l0.28-0.86l2-2c0.05-0.36-0.84-1.83-0.84-1.83S4.85,1.14,4.06,1.14L4.06,1.14z"/>
</g>
<g>
	<linearGradient id="SVGID_2_" gradientUnits="userSpaceOnUse" x1="10.7818" y1="5.2441" x2="10.0364" y2="5.9895">
		<stop  offset="0" style="stop-color:#00B6CC"/>
		<stop  offset="0.1519" style="stop-color:#00ADC4"/>
		<stop  offset="0.4046" style="stop-color:#0293AD"/>
		<stop  offset="0.7246" style="stop-color:#046A88"/>
		<stop  offset="0.9944" style="stop-color:#064264"/>
	</linearGradient>
	<path class="st1" d="M11.48,7.43c-0.31-2.3-2.82-2.97-2.85-2.97l0.1-0.39c0.03,0.01,2.8,0.73,3.15,3.31L11.48,7.43z"/>
</g>
<g>
	<linearGradient id="SVGID_3_" gradientUnits="userSpaceOnUse" x1="13.2605" y1="2.7654" x2="12.0242" y2="4.0017">
		<stop  offset="0" style="stop-color:#00B6CC"/>
		<stop  offset="0.1519" style="stop-color:#00ADC4"/>
		<stop  offset="0.4046" style="stop-color:#0293AD"/>
		<stop  offset="0.7246" style="stop-color:#046A88"/>
		<stop  offset="0.9944" style="stop-color:#064264"/>
	</linearGradient>
	<path class="st2" d="M15,6.97c-0.63-4.75-5.78-6.09-5.83-6.11l0.1-0.39c0.05,0.01,5.46,1.43,6.13,6.44L15,6.97z"/>
</g>
</svg>
