<?xml version="1.0" encoding="utf-8"?>
<!-- Generator: Adobe Illustrator 23.0.3, SVG Export Plug-In . SVG Version: 6.00 Build 0)  -->
<svg version="1.1" id="Layer_1" xmlns="http://www.w3.org/2000/svg" xmlns:xlink="http://www.w3.org/1999/xlink" x="0px" y="0px"
	 viewBox="0 0 16 16" style="enable-background:new 0 0 16 16;" xml:space="preserve">
<style type="text/css">
	.st0{fill:url(#SVGID_1_);}
	.st1{fill:url(#SVGID_2_);}
	.st2{fill:url(#SVGID_3_);}
	.st3{fill:url(#SVGID_4_);}
	.st4{fill:url(#SVGID_5_);}
	.st5{fill:url(#SVGID_6_);}
	.st6{fill:url(#SVGID_7_);}
	.st7{fill:url(#SVGID_8_);}
	.st8{fill:url(#SVGID_9_);}
	.st9{fill:#00AFF0;}
	.st10{clip-path:url(#SVGID_11_);}
	.st11{fill:#B9000A;}
	.st12{fill:#0034E7;}
	.st13{fill:#FFFFFF;}
	.st14{fill:#F4FF00;}
	.st15{clip-path:url(#SVGID_13_);}
	.st16{fill:url(#SVGID_14_);}
	.st17{fill:url(#SVGID_15_);}
	.st18{fill:url(#SVGID_16_);}
	.st19{fill:url(#SVGID_17_);}
	.st20{fill:url(#SVGID_18_);}
	.st21{fill:url(#SVGID_19_);}
	.st22{fill:url(#SVGID_20_);}
	.st23{fill:#007BC6;}
	.st24{fill:url(#SVGID_21_);}
	.st25{fill:url(#SVGID_22_);}
	.st26{fill:url(#SVGID_23_);}
</style>
<g>
	<linearGradient id="SVGID_1_" gradientUnits="userSpaceOnUse" x1="13.3609" y1="2.8659" x2="2.8659" y2="13.3609">
		<stop  offset="0" style="stop-color:#00B6CC"/>
		<stop  offset="0.1519" style="stop-color:#00ADC4"/>
		<stop  offset="0.4046" style="stop-color:#0293AD"/>
		<stop  offset="0.7246" style="stop-color:#046A88"/>
		<stop  offset="0.9944" style="stop-color:#064264"/>
	</linearGradient>
	<path class="st0" d="M15.78,11.58c0,2.3-1.86,4.16-4.16,4.16c-0.72,0-1.39-0.18-1.98-0.5c-0.01,0-0.01,0-0.01,0
		C9.1,15.36,8.56,15.42,8,15.42c-4.1,0-7.42-3.32-7.42-7.42c0-0.52,0.05-1.02,0.16-1.51c0,0,0,0,0-0.01
		C0.49,5.95,0.35,5.36,0.35,4.74c0-2.3,1.87-4.16,4.16-4.16c0.53,0,1.03,0.1,1.49,0.28h0.01C6.65,0.67,7.31,0.58,8,0.58
		c4.1,0,7.42,3.32,7.42,7.42c0,0.53-0.06,1.05-0.16,1.56C15.59,10.15,15.78,10.84,15.78,11.58z"/>
</g>
<g>
	<path class="st13" d="M4.99,9.95l1.34-0.21c0.08,0.54,0.28,0.95,0.63,1.23s0.82,0.43,1.44,0.43c0.62,0,1.08-0.13,1.38-0.38
		c0.3-0.25,0.45-0.55,0.45-0.89c0-0.3-0.13-0.54-0.4-0.72C9.64,9.29,9.18,9.14,8.44,8.95C7.45,8.7,6.76,8.49,6.38,8.3
		C6,8.12,5.71,7.87,5.51,7.55s-0.3-0.68-0.3-1.07c0-0.36,0.08-0.68,0.24-0.99c0.16-0.3,0.38-0.55,0.66-0.75
		c0.21-0.15,0.5-0.29,0.86-0.39c0.36-0.11,0.75-0.16,1.17-0.16c0.63,0,1.17,0.09,1.65,0.27c0.47,0.18,0.82,0.42,1.05,0.73
		c0.23,0.31,0.38,0.72,0.47,1.23L9.99,6.6C9.93,6.19,9.75,5.87,9.47,5.64C9.18,5.41,8.77,5.29,8.25,5.29c-0.62,0-1.06,0.1-1.33,0.31
		c-0.27,0.21-0.4,0.45-0.4,0.72c0,0.18,0.06,0.33,0.17,0.47C6.8,6.94,6.97,7.06,7.2,7.15C7.34,7.2,7.74,7.32,8.4,7.5
		c0.96,0.26,1.62,0.46,2,0.63s0.67,0.4,0.89,0.71c0.21,0.31,0.32,0.7,0.32,1.16c0,0.45-0.13,0.88-0.39,1.27
		c-0.26,0.4-0.64,0.71-1.14,0.92c-0.5,0.22-1.06,0.33-1.68,0.33c-1.04,0-1.83-0.21-2.37-0.65C5.49,11.44,5.14,10.8,4.99,9.95z"/>
</g>
<g>
	<path class="st13" d="M5.01,9.94c0,0-0.03-0.33,0.27-0.52c0.31-0.19,1-0.27,1.11,0.52"/>
</g>
<g>
	<path class="st13" d="M11.29,6.37c0,0,0.08,0.33-0.2,0.55s-0.91,0.38-1.13-0.4"/>
</g>
</svg>
