<?xml version="1.0" encoding="utf-8"?>
<!-- Generator: Adobe Illustrator 23.0.3, SVG Export Plug-In . SVG Version: 6.00 Build 0)  -->
<svg version="1.1" id="Layer_1" xmlns="http://www.w3.org/2000/svg" xmlns:xlink="http://www.w3.org/1999/xlink" x="0px" y="0px"
	 viewBox="0 0 16 16" style="enable-background:new 0 0 16 16;" xml:space="preserve">
<style type="text/css">
	.st0{fill:url(#SVGID_1_);}
	.st1{fill:url(#SVGID_2_);}
	.st2{fill:url(#SVGID_3_);}
	.st3{fill:url(#SVGID_4_);}
	.st4{fill:url(#SVGID_5_);}
	.st5{fill:url(#SVGID_6_);}
	.st6{fill:url(#SVGID_7_);}
	.st7{fill:url(#SVGID_8_);}
	.st8{fill:url(#SVGID_9_);}
	.st9{fill:#00AFF0;}
	.st10{clip-path:url(#SVGID_11_);}
	.st11{fill:#B9000A;}
	.st12{fill:#0034E7;}
	.st13{fill:#FFFFFF;}
	.st14{fill:#F4FF00;}
	.st15{clip-path:url(#SVGID_13_);}
	.st16{fill:url(#SVGID_14_);}
	.st17{fill:url(#SVGID_15_);}
	.st18{fill:url(#SVGID_16_);}
	.st19{fill:url(#SVGID_17_);}
	.st20{fill:url(#SVGID_18_);}
	.st21{fill:url(#SVGID_19_);}
	.st22{fill:url(#SVGID_20_);}
	.st23{fill:#007BC6;}
	.st24{fill:url(#SVGID_21_);}
	.st25{fill:url(#SVGID_22_);}
	.st26{fill:url(#SVGID_23_);}
</style>
<g>
	<circle class="st9" cx="8" cy="8" r="7.42"/>
</g>
<g>
	<defs>
		<circle id="SVGID_12_" cx="8" cy="8" r="7.42"/>
	</defs>
	<clipPath id="SVGID_1_">
		<use xlink:href="#SVGID_12_"  style="overflow:visible;"/>
	</clipPath>
	<g style="clip-path:url(#SVGID_1_);">
		<g>
			
				<rect x="7.97" y="0.58" transform="matrix(-1 -4.495705e-11 4.495705e-11 -1 23.5882 8.5809)" class="st13" width="7.65" height="7.42"/>
		</g>
		<g>
			
				<rect x="7.97" y="6.15" transform="matrix(-1 -4.495705e-11 4.495705e-11 -1 23.5882 14.1452)" class="st11" width="7.65" height="1.85"/>
		</g>
		<g>
			
				<rect x="7.97" y="2.44" transform="matrix(-1 -4.495705e-11 4.495705e-11 -1 23.5882 6.7261)" class="st11" width="7.65" height="1.85"/>
		</g>
		<g>
			
				<rect x="0.35" y="8" transform="matrix(-1 -4.492463e-11 4.492463e-11 -1 15.9706 23.4191)" class="st13" width="15.26" height="7.42"/>
		</g>
		<g>
			
				<rect x="0.35" y="13.56" transform="matrix(-1 -4.492463e-11 4.492463e-11 -1 15.9706 28.9835)" class="st11" width="15.26" height="1.85"/>
		</g>
		<g>
			
				<rect x="0.35" y="9.85" transform="matrix(-1 -4.492463e-11 4.492463e-11 -1 15.9706 21.5643)" class="st11" width="15.26" height="1.85"/>
		</g>
	</g>
	<g style="clip-path:url(#SVGID_1_);">
		<rect x="0.35" y="0.58" class="st12" width="7.65" height="7.42"/>
	</g>
	<g style="clip-path:url(#SVGID_1_);">
		<polygon class="st13" points="6.4,6.25 6.08,7.3 6.93,6.64 5.85,6.62 6.81,7.3 		"/>
	</g>
	<g style="clip-path:url(#SVGID_1_);">
		<polygon class="st13" points="4.08,6.25 3.77,7.3 4.62,6.64 3.54,6.62 4.49,7.3 		"/>
	</g>
	<g style="clip-path:url(#SVGID_1_);">
		<polygon class="st13" points="6.4,4.29 6.08,5.34 6.93,4.68 5.85,4.66 6.81,5.34 		"/>
	</g>
	<g style="clip-path:url(#SVGID_1_);">
		<polygon class="st13" points="4.08,4.29 3.77,5.34 4.62,4.68 3.54,4.66 4.49,5.34 		"/>
	</g>
	<g style="clip-path:url(#SVGID_1_);">
		<polygon class="st13" points="6.4,2.33 6.08,3.38 6.93,2.72 5.85,2.7 6.81,3.38 		"/>
	</g>
	<g style="clip-path:url(#SVGID_1_);">
		<polygon class="st13" points="4.08,2.33 3.77,3.38 4.62,2.72 3.54,2.7 4.49,3.38 		"/>
	</g>
	<g style="clip-path:url(#SVGID_1_);">
		<polygon class="st13" points="6.4,0.37 6.08,1.42 6.93,0.76 5.85,0.74 6.81,1.42 		"/>
	</g>
	<g style="clip-path:url(#SVGID_1_);">
		<polygon class="st13" points="4.08,0.37 3.77,1.42 4.62,0.76 3.54,0.74 4.49,1.42 		"/>
	</g>
	<g style="clip-path:url(#SVGID_1_);">
		<polygon class="st13" points="1.77,6.25 1.45,7.3 2.3,6.64 1.22,6.62 2.17,7.3 		"/>
	</g>
	<g style="clip-path:url(#SVGID_1_);">
		<polygon class="st13" points="1.77,4.29 1.45,5.34 2.3,4.68 1.22,4.66 2.17,5.34 		"/>
	</g>
</g>
</svg>
