<?xml version="1.0" encoding="utf-8"?>
<!-- Generator: Adobe Illustrator 16.0.2, SVG Export Plug-In . SVG Version: 6.00 Build 0)  -->
<!DOCTYPE svg PUBLIC "-//W3C//DTD SVG 1.1//EN" "http://www.w3.org/Graphics/SVG/1.1/DTD/svg11.dtd">
<svg version="1.1" id="Layer_1" xmlns="http://www.w3.org/2000/svg" xmlns:xlink="http://www.w3.org/1999/xlink" x="0px" y="0px"
	 width="16px" height="16px" viewBox="0 0 16 16" enable-background="new 0 0 16 16" xml:space="preserve">
<g>
	<defs>
		<path id="SVGID_19_" d="M-7.921,2.654v-0.34h1.979v2h-13.03v-2h2.121v0.34h0.959v-0.34h7.011v0.34H-7.921z M-16.651,1.794h0.561
			v0.661h-0.561V1.794z M-8.681,1.794h0.561v0.661h-0.561V1.794z M-17.001,1.054h1.32v0.73h-0.211v-0.19h-0.959v0.19h-0.15V1.054z
			 M-9.061,1.054h1.32v0.73h-0.181v-0.19h-0.96v0.19h-0.18V1.054z M-9.561,0.554v1.26h-5.62v-1.26h-2.321v1.26h-1.97v3h0.511v9.84
			h8.351v-0.5h-7.851v-9.13h12.01v4.61c0.18,0.08,0.341,0.17,0.501,0.28V4.814h0.509v-3h-1.8v-1.26H-9.561z"/>
	</defs>
	<clipPath id="SVGID_2_">
		<use xlink:href="#SVGID_19_"  overflow="visible"/>
	</clipPath>
	
		<rect x="-22.401" y="-2.341" transform="matrix(0.7071 -0.7071 0.7071 0.7071 -9.025 -6.5803)" clip-path="url(#SVGID_2_)" fill="#064264" width="19.891" height="19.891"/>
</g>
<g>
	<defs>
		<path id="SVGID_21_" d="M10.166,13.104h0.061c-0.02-0.061-0.04-0.129-0.061-0.199V13.104z"/>
	</defs>
	<clipPath id="SVGID_3_">
		<use xlink:href="#SVGID_21_"  overflow="visible"/>
	</clipPath>
	
		<linearGradient id="SVGID_5_" gradientUnits="userSpaceOnUse" x1="-123.9526" y1="114.3223" x2="-122.9526" y2="114.3223" gradientTransform="matrix(-0.1 0.1 0.1 0.1 -13.596 13.9312)">
		<stop  offset="0" style="stop-color:#00B6CC"/>
		<stop  offset="0.1519" style="stop-color:#00ADC4"/>
		<stop  offset="0.4046" style="stop-color:#0293AD"/>
		<stop  offset="0.7246" style="stop-color:#046A88"/>
		<stop  offset="0.9944" style="stop-color:#064264"/>
		<stop  offset="1" style="stop-color:#064264"/>
	</linearGradient>
	<polygon clip-path="url(#SVGID_3_)" fill="url(#SVGID_5_)" points="10.327,13.004 10.196,13.135 10.066,13.004 10.196,12.873 	"/>
</g>
<rect x="1.247" y="4.524" fill="#007BC6" width="13.011" height="0.291"/>
<path fill="#007BC6" d="M13.298,14.654h0.96v-0.58C13.986,14.334,13.656,14.535,13.298,14.654 M13.758,9.635v0.559
	c0.18,0.111,0.35,0.23,0.5,0.381v-0.66C14.098,9.805,13.938,9.715,13.758,9.635"/>
<g>
	<defs>
		<path id="SVGID_24_" d="M12.287,2.655v-0.34h1.979v2H1.236v-2h2.121v0.34h0.959v-0.34h7.011v0.34H12.287z M3.557,1.795h0.561v0.66
			H3.557V1.795z M11.527,1.795h0.561v0.66h-0.561V1.795z M3.207,1.055h1.32v0.729H4.316V1.594H3.357v0.189h-0.15V1.055z
			 M11.147,1.055h1.32v0.729h-0.181V1.594h-0.96v0.189h-0.18V1.055z M10.647,0.555v1.26h-5.62v-1.26H2.706v1.26h-1.97v3h0.511v9.839
			h9.623v-0.5H1.747v-9.13h12.01v4.611c0.18,0.08,0.341,0.17,0.501,0.279V4.815h0.509v-3h-1.8v-1.26H10.647z"/>
	</defs>
	<use xlink:href="#SVGID_24_"  overflow="visible" fill="#064264"/>
	<clipPath id="SVGID_6_">
		<use xlink:href="#SVGID_24_"  overflow="visible"/>
	</clipPath>
	
		<rect x="-2.193" y="-2.342" transform="matrix(0.7071 -0.7071 0.7071 0.7071 -3.106 7.7081)" clip-path="url(#SVGID_6_)" fill="#064264" width="19.891" height="19.891"/>
</g>
<g>
	<path fill="#064264" d="M11.907,5.899h-8.17c-0.695,0-1.255,0.56-1.255,1.25v5.18c0,0.69,0.56,1.25,1.025,1.25h6.434l0.225-0.3
		H8.354v-1.36h1.594V11.59H8.354V9.949h3.063v-0.33H8.354v-1.64h2.38l-0.021,2.192h0.338V7.979h1.8v1.655h0.311V7.149
		C13.162,6.459,12.592,5.899,11.907,5.899z M5.432,13.279H3.732c-0.521,0-0.95-0.43-0.95-0.95v-0.41h2.649V13.279z M5.432,11.59
		H2.782V9.949h2.649V11.59z M5.432,9.619H2.782v-1.64h2.649V9.619z M5.432,7.659H2.782v-0.51c0-0.53,0.43-0.95,0.95-0.95h1.699
		V7.659z M8.032,13.279H5.745v-1.36h2.287V13.279z M8.032,11.59H5.745V9.949h2.287V11.59z M8.032,9.619H5.745v-1.64h2.287V9.619z
		 M8.032,7.659H5.745v-1.46h2.287V7.659z M10.734,7.659h-2.38v-1.46h2.38V7.659z M12.852,7.659h-1.8v-1.46h0.851
		c0.529,0,0.949,0.42,0.949,0.95V7.659z"/>
</g>
<g>
	<defs>
		<path id="SVGID_26_" d="M11.797,14.654c-0.32-0.1-0.62-0.281-0.87-0.5c-0.311-0.27-0.56-0.619-0.689-1.031
			c-0.011,0-0.011-0.01-0.011-0.02c-0.02-0.061-0.04-0.129-0.061-0.199v-0.01c-0.049-0.18-0.069-0.371-0.069-0.57
			c0-0.201,0.021-0.389,0.069-0.57c0.031-0.141,0.081-0.279,0.141-0.41c0.021-0.039,0.03-0.08,0.061-0.119
			c0.011-0.02,0.02-0.051,0.04-0.08c0.41-0.75,1.22-1.271,2.141-1.271h0.069c0.069,0,0.141,0.012,0.2,0.021
			c0.34,0.031,0.659,0.141,0.939,0.299c0.18,0.111,0.351,0.23,0.501,0.381c0.46,0.439,0.739,1.07,0.739,1.75
			c0,0.682-0.279,1.311-0.739,1.75c-0.271,0.26-0.601,0.461-0.96,0.58c-0.241,0.078-0.491,0.119-0.75,0.119
			C12.287,14.773,12.037,14.732,11.797,14.654 M12.548,9.375c-0.331,0-0.641,0.049-0.931,0.148c-0.17,0.061-0.33,0.121-0.47,0.201
			c-0.3,0.16-0.56,0.369-0.78,0.609c-0.069,0.08-0.141,0.16-0.201,0.25c-0.129,0.172-0.239,0.359-0.328,0.561
			c-0.021,0.07-0.051,0.129-0.071,0.199c-0.109,0.311-0.169,0.641-0.169,0.98c0,0.199,0.02,0.391,0.06,0.58
			c0.01,0.07,0.029,0.129,0.049,0.199c0.101,0.391,0.29,0.75,0.531,1.051c0.149,0.191,0.319,0.359,0.51,0.5
			c0.499,0.391,1.13,0.619,1.801,0.619c1.63,0,2.949-1.33,2.949-2.949c0-0.99-0.489-1.869-1.239-2.41
			c-0.16-0.109-0.321-0.199-0.501-0.279c-0.289-0.131-0.609-0.221-0.939-0.24c-0.07-0.01-0.131-0.02-0.2-0.02H12.548z"/>
	</defs>
	<use xlink:href="#SVGID_26_"  overflow="visible" fill="#064264"/>
	<clipPath id="SVGID_8_">
		<use xlink:href="#SVGID_26_"  overflow="visible"/>
	</clipPath>
	
		<rect x="8.377" y="8.153" transform="matrix(0.7071 -0.7071 0.7071 0.7071 -5.0395 12.482)" clip-path="url(#SVGID_8_)" fill="#064264" width="8.342" height="8.342"/>
</g>
<rect x="11.762" y="11.27" transform="matrix(0.5949 -0.8038 0.8038 0.5949 -4.8696 14.5261)" fill="#064264" width="0.43" height="1.648"/>
<rect x="12.939" y="10.831" transform="matrix(0.6566 0.7543 -0.7543 0.6566 13.4726 -5.8444)" fill="#064264" width="0.43" height="2.083"/>
<g>
	<defs>
		<path id="SVGID_46_" d="M12.287,21.988v-0.34h1.979v2H1.236v-2h2.121v0.34h0.959v-0.34h7.011v0.34H12.287z M3.557,21.128h0.561
			v0.661H3.557V21.128z M11.527,21.128h0.561v0.661h-0.561V21.128z M3.207,20.388h1.32v0.729H4.316v-0.189H3.357v0.189h-0.15V20.388
			z M11.147,20.388h1.32v0.729h-0.181v-0.189h-0.96v0.189h-0.18V20.388z M10.647,19.888v1.261h-5.62v-1.261H2.706v1.261h-1.97v3
			h0.511v9.84h8.351v-0.5H1.747v-9.131h12.01v4.611c0.18,0.08,0.341,0.17,0.501,0.279v-5.1h0.509v-3h-1.8v-1.261H10.647z"/>
	</defs>
	<clipPath id="SVGID_9_">
		<use xlink:href="#SVGID_46_"  overflow="visible"/>
	</clipPath>
	
		<rect x="-2.193" y="16.992" transform="matrix(0.7071 -0.7071 0.7071 0.7071 -16.7767 13.3704)" clip-path="url(#SVGID_9_)" fill="#025472" width="19.891" height="19.891"/>
</g>
<g>
	<defs>
		<path id="SVGID_51_" d="M-7.823,21.988v-0.34h1.979v2h-13.03v-2h2.121v0.34h0.959v-0.34h7.011v0.34H-7.823z M-16.554,21.129h0.561
			v0.66h-0.561V21.129z M-8.583,21.129h0.561v0.66h-0.561V21.129z M-16.903,20.389h1.32v0.729h-0.211v-0.189h-0.959v0.189h-0.15
			V20.389z M-8.963,20.389h1.32v0.729h-0.181v-0.189h-0.96v0.189h-0.18V20.389z M-9.463,19.889v1.26h-5.62v-1.26h-2.321v1.26h-1.97
			v3h0.511v9.84h9.623v-0.5h-9.123v-9.131h12.01v4.611c0.18,0.08,0.341,0.17,0.501,0.279v-5.1h0.509v-3h-1.8v-1.26H-9.463z"/>
	</defs>
	<use xlink:href="#SVGID_51_"  overflow="visible" fill="#025472"/>
	<clipPath id="SVGID_11_">
		<use xlink:href="#SVGID_51_"  overflow="visible"/>
	</clipPath>
	
		<rect x="-22.304" y="16.992" transform="matrix(0.7071 -0.7071 0.7071 0.7071 -22.6664 -0.8493)" clip-path="url(#SVGID_11_)" fill="#025472" width="19.891" height="19.891"/>
</g>
</svg>
