<?xml version="1.0" encoding="utf-8"?>
<!-- Generator: Adobe Illustrator 16.0.2, SVG Export Plug-In . SVG Version: 6.00 Build 0)  -->
<!DOCTYPE svg PUBLIC "-//W3C//DTD SVG 1.1//EN" "http://www.w3.org/Graphics/SVG/1.1/DTD/svg11.dtd">
<svg version="1.1" id="Layer_1" xmlns="http://www.w3.org/2000/svg" xmlns:xlink="http://www.w3.org/1999/xlink" x="0px" y="0px"
	 width="16px" height="16px" viewBox="0 0 16 16" enable-background="new 0 0 16 16" xml:space="preserve">
<g>
	<path fill="#064264" d="M8,15.514c-4.143,0-7.514-3.371-7.514-7.514c0-4.144,3.371-7.516,7.514-7.516
		c4.144,0,7.515,3.372,7.515,7.516C15.515,12.143,12.144,15.514,8,15.514z M8,1.484C4.408,1.484,1.486,4.407,1.486,8
		c0,3.592,2.922,6.514,6.514,6.514S14.515,11.592,14.515,8C14.515,4.407,11.592,1.484,8,1.484z"/>
</g>
<g>
	<defs>
		<path id="SVGID_1_" d="M-19.998,8c0,4.246,3.441,7.687,7.687,7.687c4.247,0,7.688-3.44,7.688-7.687
			c0-4.246-3.44-7.688-7.688-7.688C-16.557,0.312-19.998,3.754-19.998,8"/>
	</defs>
	<clipPath id="SVGID_2_">
		<use xlink:href="#SVGID_1_"  overflow="visible"/>
	</clipPath>
	
		<rect x="-23.182" y="-2.872" transform="matrix(0.7071 -0.7071 0.7071 0.7071 -9.2626 -6.3623)" clip-path="url(#SVGID_2_)" fill="#064264" width="21.742" height="21.743"/>
</g>
<g>
	<defs>
		<path id="SVGID_3_" d="M0.486,26.313c0,4.246,3.441,7.687,7.687,7.687c4.247,0,7.688-3.44,7.688-7.687s-3.44-7.688-7.688-7.688
			C3.928,18.625,0.486,22.066,0.486,26.313"/>
	</defs>
	<clipPath id="SVGID_4_">
		<use xlink:href="#SVGID_3_"  overflow="visible"/>
	</clipPath>
	
		<rect x="-2.698" y="15.441" transform="matrix(0.7071 -0.7071 0.7071 0.7071 -16.2118 13.4862)" clip-path="url(#SVGID_4_)" fill="#025472" width="21.742" height="21.743"/>
</g>
<g>
	<defs>
		<rect id="SVGID_5_" width="16" height="16"/>
	</defs>
	<clipPath id="SVGID_6_">
		<use xlink:href="#SVGID_5_"  overflow="visible"/>
	</clipPath>
</g>
<path fill="#064264" d="M5.945,4.921c0,0.424-0.316,0.776-0.861,0.776c-0.522,0-0.839-0.352-0.839-0.776
	c0-0.432,0.322-0.776,0.851-0.776C5.625,4.145,5.938,4.486,5.945,4.921 M4.295,6.3h1.592v4.891H4.295V6.3z"/>
<path fill="#064264" d="M7.204,7.893c0-0.634-0.019-1.164-0.041-1.592h1.383l0.07,0.714h0.036c0.18-0.29,0.701-0.834,1.62-0.834
	c1.023,0,1.899,0.641,1.899,2.196v2.814H10.58V8.598c0-0.704-0.268-1.147-0.871-1.147c-0.484,0-0.754,0.34-0.864,0.62
	c-0.04,0.094-0.048,0.232-0.048,0.35v2.771H7.204V7.893z"/>
</svg>
