<?xml version="1.0" encoding="utf-8"?>
<!-- Generator: Adobe Illustrator 16.0.2, SVG Export Plug-In . SVG Version: 6.00 Build 0)  -->
<!DOCTYPE svg PUBLIC "-//W3C//DTD SVG 1.1//EN" "http://www.w3.org/Graphics/SVG/1.1/DTD/svg11.dtd">
<svg version="1.1" id="Layer_1" xmlns="http://www.w3.org/2000/svg" xmlns:xlink="http://www.w3.org/1999/xlink" x="0px" y="0px"
	 width="16px" height="16px" viewBox="0 0 16 16" enable-background="new 0 0 16 16" xml:space="preserve">
<g>
	<defs>
		<path id="SVGID_1_" d="M0.314,8c0,4.246,3.441,7.687,7.687,7.687c4.247,0,7.688-3.44,7.688-7.687c0-4.246-3.44-7.688-7.688-7.688
			C3.755,0.312,0.314,3.754,0.314,8"/>
	</defs>
	<clipPath id="SVGID_2_">
		<use xlink:href="#SVGID_1_"  overflow="visible"/>
	</clipPath>
	
		<rect x="-2.87" y="-2.872" transform="matrix(0.7071 -0.7071 0.7071 0.7071 -3.3129 8.0011)" clip-path="url(#SVGID_2_)" fill="#064264" width="21.742" height="21.743"/>
</g>
<path fill="#FFFFFF" d="M5.976,4.459c0,0.496-0.37,0.907-1.006,0.907c-0.61,0-0.98-0.411-0.98-0.907
	c0-0.505,0.376-0.907,0.994-0.907S5.967,3.951,5.976,4.459 M4.047,6.07h1.86v5.713h-1.86V6.07z"/>
<path fill="#FFFFFF" d="M7.447,7.931c0-0.741-0.021-1.359-0.047-1.86h1.615l0.082,0.834h0.042c0.21-0.339,0.819-0.975,1.894-0.975
	c1.194,0,2.219,0.749,2.219,2.565v3.288h-1.859V8.754c0-0.822-0.313-1.34-1.018-1.34c-0.567,0-0.882,0.398-1.011,0.724
	c-0.046,0.11-0.057,0.271-0.057,0.409v3.236h-1.86V7.931z"/>
<g>
	<defs>
		<path id="SVGID_3_" d="M20.799,26.313c0,4.246,3.441,7.687,7.687,7.687c4.247,0,7.688-3.44,7.688-7.687s-3.44-7.688-7.688-7.688
			C24.24,18.625,20.799,22.066,20.799,26.313"/>
	</defs>
	<clipPath id="SVGID_4_">
		<use xlink:href="#SVGID_3_"  overflow="visible"/>
	</clipPath>
	
		<rect x="17.615" y="15.441" transform="matrix(0.7071 -0.7071 0.7071 0.7071 -10.2624 27.8493)" clip-path="url(#SVGID_4_)" fill="#025472" width="21.742" height="21.743"/>
</g>
</svg>
