<?xml version="1.0" encoding="utf-8"?>
<!-- Generator: Adobe Illustrator 16.0.2, SVG Export Plug-In . SVG Version: 6.00 Build 0)  -->
<!DOCTYPE svg PUBLIC "-//W3C//DTD SVG 1.1//EN" "http://www.w3.org/Graphics/SVG/1.1/DTD/svg11.dtd">
<svg version="1.1" id="Layer_1" xmlns="http://www.w3.org/2000/svg" xmlns:xlink="http://www.w3.org/1999/xlink" x="0px" y="0px"
	 width="16px" height="16px" viewBox="0 0 16 16" enable-background="new 0 0 16 16" xml:space="preserve">
<g>
	<path fill="#064264" d="M11.501,15.697c-5.395,0-8.105-2.609-9.43-4.797C0.146,7.72,0.183,3.883,0.545,3.191
		c0.563-1.07,3.034-2.454,3.313-2.608c0.18-0.061,0.277-0.074,0.376-0.074c1.394,0,2.849,2.615,2.875,3.557
		c0.028,0.909-1.41,2.321-2.052,2.904c0.288,2.761,3.021,3.831,3.762,4.071c0.658-0.484,2.529-1.795,3.449-1.795
		c0.08,0,0.156,0.01,0.227,0.027c0.878,0.217,2.386,1.768,2.68,2.076c0.998,1.332-1.679,3.74-2.225,4.211l-0.102,0.086l-0.133,0.01
		C12.297,15.684,11.893,15.697,11.501,15.697z M4.234,1.309C3.269,1.822,1.594,2.917,1.253,3.563
		c-0.168,0.348-0.391,3.902,1.579,7.048c1.78,2.844,4.697,4.285,8.669,4.285c0.333,0,0.675-0.01,1.028-0.031
		c1.24-1.092,2.361-2.563,2.035-3c-0.587-0.613-1.756-1.691-2.264-1.816c0,0-0.001,0-0.002,0c-0.585,0-2.194,1.023-3.162,1.752
		l-0.154,0.117l-0.188-0.051c-0.043-0.01-4.313-1.176-4.552-5.038L4.231,6.634l0.146-0.129C5.321,5.671,6.323,4.502,6.311,4.09
		C6.289,3.359,4.97,1.309,4.234,1.309z"/>
</g>
<g>
	<path fill="#064264" d="M11.296,7.732c-0.334-3.19-3.012-3.244-3.126-3.245l0.006-0.8c0.034,0,3.508,0.067,3.915,3.962
		L11.296,7.732z"/>
</g>
<g>
	<path fill="#064264" d="M14.65,6.969C14.047,1.2,9.172,1.104,8.964,1.103l0.006-0.8c0.058,0,5.799,0.11,6.476,6.583L14.65,6.969z"
		/>
</g>
</svg>
