<?xml version="1.0" encoding="utf-8"?>
<!-- Generator: Adobe Illustrator 16.0.2, SVG Export Plug-In . SVG Version: 6.00 Build 0)  -->
<!DOCTYPE svg PUBLIC "-//W3C//DTD SVG 1.1//EN" "http://www.w3.org/Graphics/SVG/1.1/DTD/svg11.dtd">
<svg version="1.1" id="Layer_1" xmlns="http://www.w3.org/2000/svg" xmlns:xlink="http://www.w3.org/1999/xlink" x="0px" y="0px"
	 width="16px" height="16px" viewBox="0 0 16 16" enable-background="new 0 0 16 16" xml:space="preserve">
<g>
	<path fill="#064264" d="M4.114,1c0,0-2.629,1.449-3.152,2.444C0.44,4.44,0.558,16.139,12.752,15.324c0,0,2.988-2.568,2.195-3.631
		c0,0-1.677-1.764-2.487-1.965c-0.811-0.203-3.501,1.82-3.501,1.82s-4.03-1.059-4.254-4.677c0,0,2.095-1.848,2.067-2.727
		C6.747,3.266,5.2,0.701,4.114,1z"/>
</g>
<g>
	<path fill="#064264" d="M11.358,7.8c-0.334-3.191-3.012-3.244-3.126-3.245l0.006-0.8c0.034,0,3.508,0.067,3.915,3.962L11.358,7.8z"
		/>
</g>
<g>
	<path fill="#064264" d="M14.713,7.037c-0.604-5.769-5.479-5.865-5.687-5.866l0.006-0.8c0.058,0,5.799,0.11,6.476,6.583
		L14.713,7.037z"/>
</g>
</svg>
