<?xml version="1.0" encoding="utf-8"?>
<!-- Generator: Adobe Illustrator 16.0.2, SVG Export Plug-In . SVG Version: 6.00 Build 0)  -->
<!DOCTYPE svg PUBLIC "-//W3C//DTD SVG 1.1//EN" "http://www.w3.org/Graphics/SVG/1.1/DTD/svg11.dtd">
<svg version="1.1" id="Layer_1" xmlns="http://www.w3.org/2000/svg" xmlns:xlink="http://www.w3.org/1999/xlink" x="0px" y="0px"
	 width="16px" height="16px" viewBox="0 0 16 16" enable-background="new 0 0 16 16" xml:space="preserve">
<g>
	<defs>
		<path id="SVGID_1_" d="M6.01-16.6H6c-0.459-0.18-0.959-0.279-1.49-0.279c-2.291,0-4.16,1.859-4.16,4.16
			c0,0.619,0.141,1.211,0.391,1.74v0.01c-0.109,0.49-0.158,0.99-0.158,1.51c0,4.1,3.318,7.42,7.417,7.42
			c0.559,0,1.1-0.059,1.629-0.18h0.01c0.592,0.32,1.262,0.5,1.98,0.5c2.301,0,4.162-1.859,4.162-4.16c0-0.74-0.191-1.43-0.521-2.02
			c0.1-0.51,0.16-1.029,0.16-1.561c0-4.1-3.32-7.42-7.42-7.42C7.312-16.879,6.651-16.789,6.01-16.6"/>
	</defs>
	<clipPath id="SVGID_2_">
		<use xlink:href="#SVGID_1_"  overflow="visible"/>
	</clipPath>
	
		<rect x="-2.75" y="-20.114" transform="matrix(0.7072 -0.7071 0.7071 0.7072 8.9369 2.9798)" clip-path="url(#SVGID_2_)" fill="#064264" width="21.632" height="21.63"/>
</g>
<g>
	<defs>
		<rect id="SVGID_5_" x="0.001" width="15.999" height="16"/>
	</defs>
	<clipPath id="SVGID_4_">
		<use xlink:href="#SVGID_5_"  overflow="visible"/>
	</clipPath>
	<path clip-path="url(#SVGID_4_)" fill="#064264" d="M4.991,9.953l1.336-0.211c0.073,0.537,0.283,0.947,0.625,1.23
		c0.344,0.287,0.823,0.43,1.436,0.43c0.621,0,1.082-0.127,1.383-0.379c0.299-0.254,0.449-0.551,0.449-0.891
		c0-0.305-0.133-0.545-0.396-0.721C9.639,9.291,9.178,9.139,8.441,8.953c-0.989-0.25-1.676-0.465-2.058-0.65
		C5.999,8.121,5.71,7.869,5.511,7.545C5.315,7.223,5.216,6.867,5.216,6.477c0-0.357,0.08-0.686,0.244-0.988
		c0.162-0.303,0.383-0.555,0.664-0.754c0.211-0.155,0.497-0.286,0.86-0.395c0.361-0.107,0.752-0.16,1.165-0.16
		c0.627,0,1.176,0.09,1.648,0.27s0.822,0.424,1.047,0.732c0.227,0.307,0.381,0.719,0.467,1.234l-1.322,0.18
		c-0.061-0.41-0.234-0.73-0.521-0.961S8.771,5.289,8.246,5.289c-0.618,0-1.061,0.104-1.327,0.309S6.522,6.043,6.522,6.318
		c0,0.176,0.054,0.332,0.165,0.473C6.796,6.936,6.97,7.057,7.205,7.152c0.137,0.049,0.534,0.164,1.192,0.344
		c0.957,0.256,1.623,0.465,2.002,0.627c0.377,0.162,0.674,0.4,0.889,0.711s0.322,0.695,0.322,1.156c0,0.451-0.131,0.875-0.393,1.273
		c-0.264,0.396-0.643,0.705-1.139,0.922c-0.494,0.219-1.055,0.326-1.682,0.326c-1.034,0-1.823-0.215-2.366-0.645
		C5.487,11.438,5.14,10.799,4.991,9.953"/>
	<path clip-path="url(#SVGID_4_)" fill="#064264" d="M5.013,9.943c0,0-0.033-0.332,0.273-0.523c0.309-0.189,0.975-0.209,1.091,0.588
		"/>
	<path clip-path="url(#SVGID_4_)" fill="#064264" d="M11.287,6.35c0,0,0.076,0.326-0.205,0.555c-0.279,0.229-0.91,0.379-1.129-0.396
		"/>
</g>
<g>
	<defs>
		<path id="SVGID_7_" d="M24.052-16.599h-0.01c-0.459-0.18-0.959-0.28-1.49-0.28c-2.291,0-4.16,1.86-4.16,4.16
			c0,0.619,0.141,1.211,0.391,1.739v0.012c-0.109,0.488-0.158,0.988-0.158,1.509c0,4.1,3.318,7.42,7.417,7.42
			c0.559,0,1.1-0.059,1.629-0.18h0.01c0.592,0.32,1.262,0.5,1.98,0.5c2.301,0,4.162-1.859,4.162-4.16c0-0.74-0.191-1.43-0.521-2.02
			c0.1-0.51,0.16-1.029,0.16-1.561c0-4.1-3.32-7.42-7.42-7.42C25.353-16.879,24.692-16.789,24.052-16.599"/>
	</defs>
	<clipPath id="SVGID_6_">
		<use xlink:href="#SVGID_7_"  overflow="visible"/>
	</clipPath>
	
		<rect x="15.291" y="-20.114" transform="matrix(0.7072 -0.7071 0.7071 0.7072 14.2202 15.7361)" clip-path="url(#SVGID_6_)" fill="#025472" width="21.632" height="21.63"/>
</g>
<path fill="none" stroke="#064264" stroke-linecap="round" stroke-linejoin="round" stroke-miterlimit="10" d="M6.16,1.392H6.151
	C5.726,1.225,5.262,1.133,4.77,1.133c-2.124,0-3.857,1.724-3.857,3.856c0,0.574,0.13,1.123,0.362,1.613v0.01
	C1.173,7.066,1.128,7.53,1.128,8.012c0,3.801,3.077,6.879,6.877,6.879c0.518,0,1.02-0.055,1.51-0.167h0.01
	c0.548,0.298,1.169,0.464,1.836,0.464c2.133,0,3.858-1.724,3.858-3.856c0-0.687-0.178-1.326-0.483-1.873
	c0.092-0.472,0.148-0.954,0.148-1.446c0-3.801-3.078-6.879-6.879-6.879C7.367,1.133,6.754,1.216,6.16,1.392"/>
</svg>
