<?xml version="1.0" encoding="utf-8"?>
<!-- Generator: Adobe Illustrator 16.0.2, SVG Export Plug-In . SVG Version: 6.00 Build 0)  -->
<!DOCTYPE svg PUBLIC "-//W3C//DTD SVG 1.1//EN" "http://www.w3.org/Graphics/SVG/1.1/DTD/svg11.dtd">
<svg version="1.1" id="Layer_1" xmlns="http://www.w3.org/2000/svg" xmlns:xlink="http://www.w3.org/1999/xlink" x="0px" y="0px"
	 width="16px" height="16px" viewBox="0 0 16 16" enable-background="new 0 0 16 16" xml:space="preserve">
<g>
	<defs>
		<path id="SVGID_1_" d="M19.084,11.649V5.424c0-0.337,0.274-0.611,0.611-0.611h9.573c0.338,0,0.613,0.274,0.613,0.611v6.226
			c0,0.338-0.275,0.611-0.613,0.611h-9.573C19.358,12.261,19.084,11.987,19.084,11.649 M19.695,4.012
			c-0.777,0-1.412,0.635-1.412,1.412v6.226c0,0.779,0.635,1.412,1.412,1.412h9.573c0.779,0,1.413-0.633,1.413-1.412V5.424
			c0-0.777-0.634-1.412-1.413-1.412H19.695z"/>
	</defs>
	<use xlink:href="#SVGID_1_"  overflow="visible" fill="#064264"/>
	<clipPath id="SVGID_2_">
		<use xlink:href="#SVGID_1_"  overflow="visible"/>
	</clipPath>
	
		<rect x="16.899" y="0.954" transform="matrix(0.7071 -0.7071 0.7071 0.7071 1.1339 19.8118)" clip-path="url(#SVGID_2_)" fill="#064264" width="15.166" height="15.166"/>
</g>
<path fill="#064264" d="M0.096,11.874V4.715c0-0.388,0.315-0.703,0.703-0.703h11.009c0.389,0,0.705,0.315,0.705,0.703v7.159
	c0,0.389-0.316,0.703-0.705,0.703H0.799C0.411,12.577,0.096,12.263,0.096,11.874"/>
<polygon fill="#064264" points="15.578,5.171 15.578,11.417 14.417,11.417 12.957,10.374 12.957,6.455 14.482,5.171 "/>
</svg>
