<?xml version="1.0" encoding="utf-8"?>
<!-- Generator: Adobe Illustrator 16.0.2, SVG Export Plug-In . SVG Version: 6.00 Build 0)  -->
<!DOCTYPE svg PUBLIC "-//W3C//DTD SVG 1.1//EN" "http://www.w3.org/Graphics/SVG/1.1/DTD/svg11.dtd">
<svg version="1.1" id="Layer_1" xmlns="http://www.w3.org/2000/svg" xmlns:xlink="http://www.w3.org/1999/xlink" x="0px" y="0px"
	 width="16px" height="16px" viewBox="0 0 16 16" enable-background="new 0 0 16 16" xml:space="preserve">
<g>
	<defs>
		<path id="SVGID_1_" d="M3.166,30.433h1.811c0.41,0.77,0.851,1.42,1.24,1.908C5.027,32.003,3.967,31.333,3.166,30.433
			 M6.127,30.433h1.37v1.9C7.167,31.944,6.637,31.282,6.127,30.433 M8.497,30.433h1.3c-0.47,0.801-0.96,1.42-1.3,1.82V30.433z
			 M10.957,30.433h1.881c-0.83,0.918-1.911,1.6-3.132,1.93C10.097,31.864,10.547,31.212,10.957,30.433 M1.508,26.583h2.219
			c0.111,1.029,0.391,1.99,0.76,2.85h-2.06C1.907,28.593,1.588,27.622,1.508,26.583 M4.747,26.583h2.75v2.85H5.598
			C5.188,28.593,4.857,27.622,4.747,26.583 M8.497,26.583h2.689c-0.119,1.039-0.449,2.01-0.85,2.85h-1.84V26.583z M12.207,26.583
			h2.289c-0.08,1.039-0.398,2.01-0.919,2.85h-2.13C11.817,28.573,12.097,27.612,12.207,26.583 M2.417,22.744h1.81
			c-0.34,0.889-0.529,1.799-0.55,2.75v0.09H1.508C1.588,24.555,1.907,23.584,2.417,22.744 M4.677,25.514
			c0.021-0.959,0.23-1.881,0.64-2.77h2.181v2.84h-2.82V25.514z M8.497,22.744h2.119c0.4,0.889,0.61,1.799,0.641,2.76v0.08h-2.76
			V22.744z M12.257,25.494c-0.02-0.951-0.21-1.861-0.551-2.75h1.881c0.511,0.84,0.829,1.811,0.909,2.84h-2.239V25.494z
			 M6.018,19.885c-0.531,0.6-0.971,1.219-1.32,1.859h-1.54C3.917,20.885,4.907,20.234,6.018,19.885 M8.497,19.854
			c0.631,0.611,1.15,1.23,1.57,1.891h-1.57V19.854z M9.897,19.854c1.15,0.352,2.159,1.01,2.95,1.891h-1.611
			C10.877,21.094,10.437,20.465,9.897,19.854 M7.497,19.785v1.959h-1.63C6.286,21.064,6.837,20.414,7.497,19.785 M0.486,26.083
			c0,4.139,3.371,7.51,7.511,7.51c4.15,0,7.52-3.371,7.52-7.51c0-4.14-3.369-7.509-7.52-7.509
			C3.857,18.574,0.486,21.943,0.486,26.083"/>
	</defs>
	<clipPath id="SVGID_2_">
		<use xlink:href="#SVGID_1_"  overflow="visible"/>
	</clipPath>
	
		<rect x="-2.623" y="15.458" transform="matrix(0.7071 -0.7071 0.7071 0.7071 -16.0998 13.2978)" clip-path="url(#SVGID_2_)" fill="#025472" width="21.249" height="21.249"/>
</g>
<g>
	<defs>
		<path id="SVGID_3_" d="M3.166,12.559h1.811c0.41,0.77,0.851,1.42,1.24,1.908C5.027,14.129,3.967,13.459,3.166,12.559
			 M6.127,12.559h1.37v1.9C7.167,14.07,6.637,13.408,6.127,12.559 M8.497,12.559h1.3c-0.47,0.801-0.96,1.42-1.3,1.82V12.559z
			 M10.957,12.559h1.881c-0.83,0.918-1.911,1.6-3.132,1.93C10.097,13.99,10.547,13.338,10.957,12.559 M1.508,8.709h2.219
			c0.111,1.029,0.391,1.99,0.76,2.85h-2.06C1.907,10.719,1.588,9.748,1.508,8.709 M4.747,8.709h2.75v2.85H5.598
			C5.188,10.719,4.857,9.748,4.747,8.709 M8.497,8.709h2.689c-0.119,1.039-0.449,2.01-0.85,2.85h-1.84V8.709z M12.207,8.709h2.289
			c-0.08,1.039-0.398,2.01-0.919,2.85h-2.13C11.817,10.699,12.097,9.738,12.207,8.709 M2.417,4.869h1.81
			c-0.34,0.889-0.529,1.799-0.55,2.75v0.09H1.508C1.588,6.68,1.907,5.709,2.417,4.869 M4.677,7.639
			c0.021-0.959,0.23-1.881,0.64-2.77h2.181v2.84h-2.82V7.639z M8.497,4.869h2.119c0.4,0.889,0.61,1.799,0.641,2.76v0.08h-2.76V4.869
			z M12.257,7.619c-0.02-0.951-0.21-1.861-0.551-2.75h1.881c0.511,0.84,0.829,1.811,0.909,2.84h-2.239V7.619z M6.018,2.01
			c-0.531,0.6-0.971,1.219-1.32,1.859h-1.54C3.917,3.01,4.907,2.359,6.018,2.01 M8.497,1.979c0.631,0.611,1.15,1.23,1.57,1.891
			h-1.57V1.979z M9.897,1.979c1.15,0.352,2.159,1.01,2.95,1.891h-1.611C10.877,3.219,10.437,2.59,9.897,1.979 M7.497,1.91v1.959
			h-1.63C6.286,3.189,6.837,2.539,7.497,1.91 M0.486,8.209c0,4.139,3.371,7.51,7.511,7.51c4.15,0,7.52-3.371,7.52-7.51
			c0-4.141-3.369-7.51-7.52-7.51C3.857,0.699,0.486,4.068,0.486,8.209"/>
	</defs>
	<use xlink:href="#SVGID_3_"  overflow="visible" fill="#064264"/>
	<clipPath id="SVGID_4_">
		<use xlink:href="#SVGID_3_"  overflow="visible"/>
	</clipPath>
	
		<rect x="-2.623" y="-2.416" transform="matrix(0.7071 -0.7071 0.7071 0.7071 -3.4609 8.0626)" clip-path="url(#SVGID_4_)" fill="#064264" width="21.249" height="21.249"/>
</g>
<g>
	<defs>
		<circle id="SVGID_5_" cx="-11.345" cy="7.96" r="7.757"/>
	</defs>
	<clipPath id="SVGID_6_">
		<use xlink:href="#SVGID_5_"  overflow="visible"/>
	</clipPath>
	<g clip-path="url(#SVGID_6_)">
		
			<rect x="-23.937" y="-4.731" transform="matrix(0.7071 -0.7071 0.7071 0.7071 -8.9119 -5.6462)" fill="#FFFFFF" width="25.33" height="25.33"/>
	</g>
</g>
<g>
	<defs>
		<circle id="SVGID_7_" cx="-11.345" cy="25.833" r="7.757"/>
	</defs>
	<clipPath id="SVGID_8_">
		<use xlink:href="#SVGID_7_"  overflow="visible"/>
	</clipPath>
	<g clip-path="url(#SVGID_8_)">
		
			<rect x="-23.937" y="13.143" transform="matrix(0.7071 -0.7071 0.7071 0.7071 -21.5501 -0.4113)" fill="#FFFFFF" width="25.33" height="25.33"/>
	</g>
</g>
</svg>
