<?xml version="1.0" encoding="utf-8"?>
<!-- Generator: Adobe Illustrator 16.0.2, SVG Export Plug-In . SVG Version: 6.00 Build 0)  -->
<!DOCTYPE svg PUBLIC "-//W3C//DTD SVG 1.1//EN" "http://www.w3.org/Graphics/SVG/1.1/DTD/svg11.dtd">
<svg version="1.1" id="Layer_1" xmlns="http://www.w3.org/2000/svg" xmlns:xlink="http://www.w3.org/1999/xlink" x="0px" y="0px"
	 width="16px" height="16px" viewBox="0 0 16 16" enable-background="new 0 0 16 16" xml:space="preserve">
<g>
	<defs>
		<path id="SVGID_1_" d="M22.499,30.433h1.811c0.41,0.77,0.851,1.42,1.24,1.908C24.36,32.003,23.3,31.333,22.499,30.433
			 M25.46,30.433h1.37v1.9C26.5,31.944,25.97,31.282,25.46,30.433 M27.83,30.433h1.3c-0.47,0.801-0.96,1.42-1.3,1.82V30.433z
			 M30.29,30.433h1.881c-0.83,0.918-1.911,1.6-3.132,1.93C29.43,31.864,29.88,31.212,30.29,30.433 M20.841,26.583h2.219
			c0.111,1.029,0.391,1.99,0.76,2.85h-2.06C21.24,28.593,20.921,27.622,20.841,26.583 M24.08,26.583h2.75v2.85h-1.899
			C24.521,28.593,24.19,27.622,24.08,26.583 M27.83,26.583h2.689c-0.119,1.039-0.449,2.01-0.85,2.85h-1.84V26.583z M31.54,26.583
			h2.289c-0.08,1.039-0.398,2.01-0.919,2.85h-2.13C31.15,28.573,31.43,27.612,31.54,26.583 M21.75,22.744h1.81
			c-0.34,0.889-0.529,1.799-0.55,2.75v0.09h-2.169C20.921,24.555,21.24,23.584,21.75,22.744 M24.01,25.514
			c0.021-0.959,0.23-1.881,0.64-2.77h2.181v2.84h-2.82V25.514z M27.83,22.744h2.119c0.4,0.889,0.61,1.799,0.641,2.76v0.08h-2.76
			V22.744z M31.59,25.494c-0.02-0.951-0.21-1.861-0.551-2.75h1.881c0.511,0.84,0.829,1.811,0.909,2.84H31.59V25.494z M25.351,19.885
			c-0.531,0.6-0.971,1.219-1.32,1.859h-1.54C23.25,20.885,24.24,20.234,25.351,19.885 M27.83,19.854
			c0.631,0.611,1.15,1.23,1.57,1.891h-1.57V19.854z M29.23,19.854c1.15,0.352,2.159,1.01,2.95,1.891h-1.611
			C30.21,21.094,29.77,20.465,29.23,19.854 M26.83,19.785v1.959H25.2C25.619,21.064,26.17,20.414,26.83,19.785 M19.819,26.083
			c0,4.139,3.371,7.51,7.511,7.51c4.15,0,7.52-3.371,7.52-7.51c0-4.14-3.369-7.509-7.52-7.509
			C23.19,18.574,19.819,21.943,19.819,26.083"/>
	</defs>
	<clipPath id="SVGID_2_">
		<use xlink:href="#SVGID_1_"  overflow="visible"/>
	</clipPath>
	
		<rect x="16.71" y="15.458" transform="matrix(0.7071 -0.7071 0.7071 0.7071 -10.4372 26.9683)" clip-path="url(#SVGID_2_)" fill="#025472" width="21.249" height="21.249"/>
</g>
<g>
	<defs>
		<path id="SVGID_3_" d="M22.499,12.559h1.811c0.41,0.77,0.851,1.42,1.24,1.908C24.36,14.129,23.3,13.459,22.499,12.559
			 M25.46,12.559h1.37v1.9C26.5,14.07,25.97,13.408,25.46,12.559 M27.83,12.559h1.3c-0.47,0.801-0.96,1.42-1.3,1.82V12.559z
			 M30.29,12.559h1.881c-0.83,0.918-1.911,1.6-3.132,1.93C29.43,13.99,29.88,13.338,30.29,12.559 M20.841,8.709h2.219
			c0.111,1.029,0.391,1.99,0.76,2.85h-2.06C21.24,10.719,20.921,9.748,20.841,8.709 M24.08,8.709h2.75v2.85h-1.899
			C24.521,10.719,24.19,9.748,24.08,8.709 M27.83,8.709h2.689c-0.119,1.039-0.449,2.01-0.85,2.85h-1.84V8.709z M31.54,8.709h2.289
			c-0.08,1.039-0.398,2.01-0.919,2.85h-2.13C31.15,10.699,31.43,9.738,31.54,8.709 M21.75,4.869h1.81
			c-0.34,0.889-0.529,1.799-0.55,2.75v0.09h-2.169C20.921,6.68,21.24,5.709,21.75,4.869 M24.01,7.639
			c0.021-0.959,0.23-1.881,0.64-2.77h2.181v2.84h-2.82V7.639z M27.83,4.869h2.119c0.4,0.889,0.61,1.799,0.641,2.76v0.08h-2.76V4.869
			z M31.59,7.619c-0.02-0.951-0.21-1.861-0.551-2.75h1.881c0.511,0.84,0.829,1.811,0.909,2.84H31.59V7.619z M25.351,2.01
			c-0.531,0.6-0.971,1.219-1.32,1.859h-1.54C23.25,3.01,24.24,2.359,25.351,2.01 M27.83,1.979c0.631,0.611,1.15,1.23,1.57,1.891
			h-1.57V1.979z M29.23,1.979c1.15,0.352,2.159,1.01,2.95,1.891h-1.611C30.21,3.219,29.77,2.59,29.23,1.979 M26.83,1.91v1.959H25.2
			C25.619,3.189,26.17,2.539,26.83,1.91 M19.819,8.209c0,4.139,3.371,7.51,7.511,7.51c4.15,0,7.52-3.371,7.52-7.51
			c0-4.141-3.369-7.51-7.52-7.51C23.19,0.699,19.819,4.068,19.819,8.209"/>
	</defs>
	<use xlink:href="#SVGID_3_"  overflow="visible" fill="#064264"/>
	<clipPath id="SVGID_4_">
		<use xlink:href="#SVGID_3_"  overflow="visible"/>
	</clipPath>
	
		<rect x="16.71" y="-2.416" transform="matrix(0.7071 -0.7071 0.7071 0.7071 2.2016 21.7331)" clip-path="url(#SVGID_4_)" fill="#064264" width="21.249" height="21.249"/>
</g>
<g>
	<defs>
		<circle id="SVGID_5_" cx="7.988" cy="7.96" r="7.757"/>
	</defs>
	<clipPath id="SVGID_6_">
		<use xlink:href="#SVGID_5_"  overflow="visible"/>
	</clipPath>
	<g clip-path="url(#SVGID_6_)">
		
			<rect x="-4.604" y="-4.731" transform="matrix(0.7071 -0.7071 0.7071 0.7071 -3.2494 8.0243)" fill="#FFFFFF" width="25.33" height="25.33"/>
	</g>
</g>
<path fill="#064264" d="M2.297,13.119h2.159c0.489,0.918,1.014,1.693,1.479,2.275C4.517,14.992,3.251,14.193,2.297,13.119"/>
<path fill="#064264" d="M5.827,13.119H7.46v2.266C7.066,14.922,6.434,14.133,5.827,13.119"/>
<path fill="#064264" d="M8.652,13.119h1.549c-0.559,0.956-1.144,1.693-1.549,2.171V13.119z"/>
<path fill="#064264" d="M11.584,13.119h2.243c-0.99,1.095-2.278,1.908-3.732,2.301C10.56,14.827,11.095,14.049,11.584,13.119"/>
<path fill="#064264" d="M0.32,8.53h2.646c0.132,1.227,0.465,2.373,0.906,3.397H1.416C0.797,10.927,0.416,9.769,0.32,8.53"/>
<path fill="#064264" d="M4.182,8.53H7.46v3.397H5.196C4.707,10.927,4.313,9.769,4.182,8.53"/>
<path fill="#064264" d="M8.652,8.53h3.207c-0.143,1.238-0.536,2.396-1.014,3.397H8.652V8.53z"/>
<path fill="#064264" d="M13.073,8.53h2.73c-0.097,1.238-0.475,2.396-1.095,3.397h-2.54C12.61,10.903,12.943,9.757,13.073,8.53"/>
<path fill="#064264" d="M1.404,3.953h2.158C3.156,5.012,2.931,6.097,2.906,7.231v0.107H0.32C0.416,6.111,0.797,4.955,1.404,3.953"/>
<path fill="#064264" d="M4.099,7.255C4.123,6.111,4.373,5.012,4.86,3.953h2.6v3.385H4.099V7.255z"/>
<path fill="#064264" d="M8.652,3.953h2.526c0.478,1.059,0.727,2.144,0.764,3.29v0.096h-3.29V3.953z"/>
<path fill="#064264" d="M13.135,7.231c-0.022-1.134-0.252-2.219-0.657-3.278h2.243c0.608,1.001,0.986,2.158,1.083,3.385h-2.669
	V7.231z"/>
<path fill="#064264" d="M5.697,0.545C5.063,1.259,4.54,1.998,4.123,2.761H2.287C3.192,1.736,4.373,0.961,5.697,0.545"/>
<path fill="#064264" d="M8.652,0.507c0.753,0.729,1.372,1.467,1.873,2.254H8.652V0.507z"/>
<path fill="#064264" d="M10.322,0.507c1.372,0.42,2.573,1.204,3.516,2.254h-1.921C11.489,1.985,10.964,1.236,10.322,0.507"/>
<path fill="#064264" d="M7.46,0.425v2.335H5.517C6.017,1.951,6.673,1.176,7.46,0.425"/>
<g>
	<defs>
		<circle id="SVGID_7_" cx="7.988" cy="25.833" r="7.757"/>
	</defs>
	<clipPath id="SVGID_8_">
		<use xlink:href="#SVGID_7_"  overflow="visible"/>
	</clipPath>
	<g clip-path="url(#SVGID_8_)">
		
			<rect x="-4.604" y="13.143" transform="matrix(0.7071 -0.7071 0.7071 0.7071 -15.8876 13.2592)" fill="#FFFFFF" width="25.33" height="25.33"/>
	</g>
</g>
</svg>
